<svg id="new-logo" xmlns="http://www.w3.org/2000/svg" width="256.833" height="43.717" viewBox="0 0 256.833 43.717">
  <g id="Sceau" transform="translate(0 0.727)">
    <path id="Fill-3" d="M22.518,36.2A24.236,24.236,0,0,1,9.25,36.036a21.235,21.235,0,0,0,10.32,3.512A5.833,5.833,0,0,0,22.518,36.2" transform="translate(0.347 3.41)" fill="#fff" fill-rule="evenodd"/>
    <path id="Fill-5" d="M6.933,28.41c0-.721-.077-.87-.7-1.071-1.566-.51-1.986-1.392-1.458-3.652.419.864,1.609,1.152,2.156,2.3V13.287A14.114,14.114,0,0,1,10.971,2.84,21.577,21.577,0,0,0,5.6,35.254,14.807,14.807,0,0,0,6.933,28.41" transform="translate(-0.506 0.17)" fill="#fff" fill-rule="evenodd"/>
    <path id="Fill-7" d="M22.932,35.9a7.969,7.969,0,0,1-2.19,3.872,9.322,9.322,0,0,0,5.985-5.759A18.791,18.791,0,0,1,22.932,35.9" transform="translate(1.469 3.213)" fill="#fff" fill-rule="evenodd"/>
    <path id="Fill-9" d="M12.011,21.713c0-.721-.073-.868-.693-1.069-1.568-.511-1.986-1.388-1.465-3.657.425.872,1.613,1.159,2.158,2.3V16.946c0-.721-.073-.866-.693-1.063-1.568-.517-1.986-1.4-1.465-3.659.425.868,1.613,1.151,2.158,2.3V11.255c0-4.73,1.465-8.513,4.871-10.737-5.5,2.084-9.239,6.182-9.241,13V26.208c.541-1.142,1.732-1.432,2.148-2.3.525,2.261.109,3.143-1.46,3.652-.614.2-.687.35-.687,1.071a18.679,18.679,0,0,1-.89,6.093c3.422-2.449,5.258-6.2,5.26-11.362Z" transform="translate(0.104 -0.056)" fill="#fff" fill-rule="evenodd"/>
    <path id="Fill-11" d="M13.156,21.754c0-.721.077-.868.7-1.069,1.568-.511,1.98-1.388,1.459-3.657-.424.872-1.611,1.153-2.158,2.3V16.987c0-.721.077-.866.7-1.063,1.568-.517,1.98-1.4,1.459-3.659-.424.868-1.611,1.151-2.158,2.3V11.3c0-6.044,2.516-9.991,8.184-11.2A10.633,10.633,0,0,0,17.666,7.92c-.541-1.146-1.734-1.432-2.154-2.3-.519,2.263-.166,3.141,1.4,3.652.618.2.7.346.7,1.07V21c0,8.812-4.261,12.707-9.138,13.941,3.3-2.908,4.688-6.921,4.682-11.535Z" transform="translate(0.272 -0.097)" fill="#fff" fill-rule="evenodd"/>
    <path id="Fill-13" d="M23.535,32.357V20.512c0-.719-.075-.868-.7-1.069-1.568-.513-1.983-1.393-1.456-3.656.419.868,1.6,1.155,2.154,2.3.177-6.434,2.847-11.965,9.3-14.633A21.11,21.11,0,0,0,23.715.215C20.8,1.809,19.5,4.51,19.211,7.938c.548-1.142,1.735-1.46,2.156-2.328.516,2.265.043,3.143-1.528,3.654-.616.2-.689.346-.689,1.07V20.991c0,10.238-5.369,14.886-12.992,15.75a22.759,22.759,0,0,0,17.091,1.455,16.058,16.058,0,0,0,.285-3.159v-.257c0-.715-.075-.866-.7-1.063-1.568-.518-1.983-1.4-1.456-3.661.419.868,1.6,1.153,2.154,2.3" transform="translate(0.046 -0.086)" fill="#fff" fill-rule="evenodd"/>
    <path id="Fill-15" d="M27.623,27.418c0-.719-.075-.864-.689-1.066-1.572-.515-1.987-1.4-1.465-3.658.421.868,1.607,1.157,2.154,2.3V14.464c0-3.923.754-7.074,2.239-9.366-4.6,2.677-6.492,7.186-6.659,12.509.547-1.143,1.733-1.43,2.154-2.3.521,2.263.109,3.143-1.463,3.656-.618.2-.691.35-.691,1.069V31.88c.547-1.148,1.733-1.434,2.154-2.3.521,2.265.109,3.143-1.463,3.661-.618.2-.691.348-.691,1.063v.255a18.4,18.4,0,0,1-.178,2.63,17.175,17.175,0,0,0,4.105-2.43,22.108,22.108,0,0,0,.492-4.872Z" transform="translate(1.692 0.391)" fill="#fff" fill-rule="evenodd"/>
    <path id="Fill-17" d="M32.848,19.037c0-.721-.075-.866-.691-1.065-1.57-.515-1.988-1.392-1.464-3.656.421.866,1.607,1.155,2.156,2.3V14.264c0-.719-.075-.866-.691-1.069-1.57-.513-1.988-1.389-1.464-3.652.421.866,1.607,1.151,2.156,2.3V9.808a12.469,12.469,0,0,1,.743-4.5q-.717-.66-1.5-1.253c-2.5,2.094-3.662,5.669-3.662,10.507V25.095c.545-1.142,1.729-1.432,2.152-2.3.523,2.263.105,3.143-1.463,3.658-.614.2-.689.346-.689,1.065v2.467a26.246,26.246,0,0,1-.211,3.4c2.648-2.8,4.624-7.139,4.624-12.847Z" transform="translate(2.199 0.289)" fill="#fff" fill-rule="evenodd"/>
    <path id="Fill-19" d="M34.568,18.835c0-.721.071-.866.691-1.065,1.57-.515,1.984-1.392,1.465-3.656-.421.866-1.615,1.155-2.156,2.3V14.062c0-.719.071-.866.691-1.069,1.57-.513,1.984-1.389,1.465-3.652-.421.866-1.615,1.151-2.156,2.3V9.606a11.766,11.766,0,0,1,.47-3.477A21.556,21.556,0,0,1,24.1,42.036a11.556,11.556,0,0,0,4.114-6.647c4.186-3.618,6.356-8.692,6.356-15.053Z" transform="translate(1.796 0.491)" fill="#fff" fill-rule="evenodd"/>
  </g>
  <path id="Fill-21" d="M60.918,4.437H53.543V23.347h1.435V17.526c0-1.4,1.1-2.063,2.7-2.063h2.579c4.257,0,6.537-1.933,6.537-5.541,0-2.729-1.56-5.485-5.87-5.485M60.2,14.176H57.877a4.033,4.033,0,0,0-2.9.823V5.72h5.84c3.051,0,4.411,1.7,4.411,4.2,0,3.092-1.488,4.254-5.027,4.254" transform="translate(4.669 0.37)" fill="#fff" fill-rule="evenodd"/>
  <path id="Fill-24" d="M82.485,4.437H81.046V23.347H91.793l.361-1.289H82.485Z" transform="translate(7.353 0.37)" fill="#fff" fill-rule="evenodd"/>
  <path id="Fill-25" d="M108.249,23.348h1.437V4.437h-1.437Z" transform="translate(10.008 0.37)" fill="#fff" fill-rule="evenodd"/>
  <path id="Fill-26" d="M71.987,4.433,64.911,23.3l1.411.387,1.088-3.031c.332-.925,1.051-1.185,2.257-1.261H75.9c1.18,0,1.872.336,2.231,1.288l1.117,3L80.73,23.3,73.653,4.433ZM75.92,18.105H69.64a2.131,2.131,0,0,0-1.437.411l4.578-12.46,4.577,12.46a2.229,2.229,0,0,0-1.439-.411Z" transform="translate(5.779 0.37)" fill="#fff" fill-rule="evenodd"/>
  <path id="Fill-28" d="M99.223,4.433,92.147,23.3l1.41.387,1.09-3.031c.334-.925,1.052-1.185,2.257-1.261h6.229c1.178,0,1.87.336,2.231,1.288l1.115,3,1.487-.387L100.889,4.433Zm3.934,13.672h-6.28a2.131,2.131,0,0,0-1.435.411l4.577-12.46,4.575,12.46a2.216,2.216,0,0,0-1.436-.411Z" transform="translate(8.436 0.37)" fill="#fff" fill-rule="evenodd"/>
  <path id="Fill-30" d="M114.492,8.925c0-2.249,1.963-3.436,4.49-3.436a7.339,7.339,0,0,1,4.783,1.828l.834-1.041a8.613,8.613,0,0,0-5.617-2.1c-2.782,0-5.925,1.511-5.925,4.925,0,7.055,10.944,2.55,10.944,9.087,0,2.488-2.385,4.148-5.2,4.148a8.124,8.124,0,0,1-6.015-2.628l-.855,1.058a9.526,9.526,0,0,0,6.853,2.886c3.161,0,6.668-2.037,6.668-5.636,0-7.822-10.96-3.408-10.96-9.087" transform="translate(10.367 0.344)" fill="#fff" fill-rule="evenodd"/>
  <path id="Fill-32" d="M147.844,13.789c0-6.109-2.335-9.356-9-9.356h-4.385V23.348h4.385c6.666,0,9-3.117,9-9.559ZM135.894,5.7h2.949c4.281,0,7.434,1.159,7.434,8.195,0,7.323-3.153,8.2-7.434,8.2h-2.949Z" transform="translate(12.565 0.37)" fill="#fff" fill-rule="evenodd"/>
  <path id="Fill-34" d="M161.4,22.063H150.977v-6.05c0-1.367,1.1-1.964,2.694-1.964h5.66V12.76h-5.456a3.893,3.893,0,0,0-2.9.751V5.722h10V4.433H149.541V23.348H161.4Z" transform="translate(14.037 0.37)" fill="#fff" fill-rule="evenodd"/>
  <path id="Fill-36" d="M164.037,8.925c0-2.249,1.961-3.434,4.488-3.434a7.35,7.35,0,0,1,4.781,1.825l.837-1.039a8.607,8.607,0,0,0-5.618-2.1c-2.781,0-5.925,1.509-5.925,4.926,0,7.054,10.944,2.548,10.944,9.086,0,2.485-2.381,4.147-5.2,4.147a8.118,8.118,0,0,1-6.015-2.628l-.856,1.055a9.526,9.526,0,0,0,6.853,2.89c3.161,0,6.67-2.041,6.67-5.638,0-7.823-10.959-3.41-10.959-9.089" transform="translate(15.201 0.345)" fill="#fff" fill-rule="evenodd"/>
  <path id="Fill-38" d="M206.93,13.589a3.909,3.909,0,0,0-2.9-.827h-4.412a3.9,3.9,0,0,0-2.894.827V4.431h-1.438v18.92h1.438V16.086c0-1.366,1.1-2.035,2.688-2.035h4.823c1.589,0,2.693.668,2.693,2.035v7.264h1.435V4.431H206.93Z" transform="translate(18.501 0.37)" fill="#fff" fill-rule="evenodd"/>
  <path id="Fill-41" d="M181.48,5.719h5.693v17.63h1.435V5.719H194.3V4.426H181.48Z" transform="translate(17.153 0.369)" fill="#fff" fill-rule="evenodd"/>
  <path id="Fill-42" d="M211.942,16.011c0-1.365,1.1-1.959,2.691-1.959h5.661v-1.29h-5.456a3.888,3.888,0,0,0-2.9.752V5.724h10V4.437H210.5V23.347h11.866V22.062H211.942Z" transform="translate(19.985 0.37)" fill="#fff" fill-rule="evenodd"/>
  <path id="Fill-44" d="M224.748,8.925c0-2.249,1.964-3.434,4.49-3.434a7.343,7.343,0,0,1,4.779,1.828l.838-1.039a8.591,8.591,0,0,0-5.617-2.1c-2.781,0-5.925,1.509-5.925,4.926,0,7.054,10.943,2.55,10.943,9.089,0,2.483-2.386,4.149-5.2,4.149a8.137,8.137,0,0,1-6.02-2.632l-.854,1.06a9.539,9.539,0,0,0,6.853,2.886c3.163,0,6.67-2.041,6.67-5.636,0-7.822-10.96-3.412-10.96-9.091" transform="translate(21.125 0.345)" fill="#fff" fill-rule="evenodd"/>
  <path id="Fill-47" d="M219.284,1.224,218.822.057l-6.09,2.692.461,1.173Z" transform="translate(20.203 -0.057)" fill="#fff" fill-rule="evenodd"/>
  <path id="Fill-48" d="M56.911,28.973H53.682v7.872h.809v-2.68l.226-.259c.229-.252.276-.281.763-.294H56.9a2.32,2.32,0,1,0,.01-4.64m-.01,3.855H55.443a1.3,1.3,0,0,0-.931.269l-.02.018V29.758h2.42a1.56,1.56,0,0,1,1.561,1.549,1.544,1.544,0,0,1-1.571,1.52" transform="translate(4.683 2.764)" fill="#fff" fill-rule="evenodd"/>
  <path id="Fill-50" d="M66.149,28.973h-.694l-2.868,7.734.59.252.061.026.063.027.324-.9c.232-.618.444-.756.7-.76h2.948c.254,0,.468.141.7.76l.277.758.023.061.022.062.6-.241.057-.023.058-.023-.044-.117Zm-1.934,5.555L65.5,31.053l.3-.889.3.889,1.27,3.46v0l.041.1a.821.821,0,0,0-.234-.044H64.41a.805.805,0,0,0-.23.041Z" transform="translate(5.552 2.764)" fill="#fff" fill-rule="evenodd"/>
  <path id="Fill-52" d="M77.589,33.7l-.029-.12a.421.421,0,0,1,.137-.215,3.466,3.466,0,0,1,.258-.246,2.291,2.291,0,0,0,.921-1.836v-.007a2.321,2.321,0,0,0-2.332-2.3H73.258v7.872h.811V34.162l.256-.318c.157-.187.23-.222.721-.232h1.117a.737.737,0,0,1,.677.388l1.4,2.971.621-.293.058-.029.058-.026-.056-.117Zm-.65-.654a1.617,1.617,0,0,0-.777-.219h-1.14a1.629,1.629,0,0,0-.954.217V29.757h2.475a1.535,1.535,0,0,1,1.522,1.52,1.4,1.4,0,0,1-.512,1.117,3.472,3.472,0,0,0-.614.652Z" transform="translate(6.593 2.764)" fill="#fff" fill-rule="evenodd"/>
  <path id="Fill-55" d="M83.611,28.973h-.065v7.873h.81V28.973h-.681Z" transform="translate(7.597 2.764)" fill="#fff" fill-rule="evenodd"/>
  <path id="Fill-56" d="M92.255,32.255h0a2.562,2.562,0,0,1-1.165-.334,1.068,1.068,0,0,1-.536-.967c0-.82.716-1.282,1.7-1.291a2.519,2.519,0,0,1,1.81.714l.05.044.05.05.422-.51.038-.046.04-.047-.092-.081a3.274,3.274,0,0,0-2.315-.918h0a2.992,2.992,0,0,0-1.685.484,1.867,1.867,0,0,0-.829,1.6v.01a1.819,1.819,0,0,0,.818,1.567,3.426,3.426,0,0,0,1.655.522,2.734,2.734,0,0,1,1.332.442,1.349,1.349,0,0,1,.621,1.146,1.438,1.438,0,0,1-.583,1.14,2.3,2.3,0,0,1-1.407.457,2.884,2.884,0,0,1-2.274-1.063l-.045-.047-.046-.046-.464.478-.044.046-.045.044.091.091a3.717,3.717,0,0,0,2.823,1.283h0a3.191,3.191,0,0,0,1.886-.605,2.173,2.173,0,0,0,.906-1.776c-.005-1.545-1.422-2.295-2.716-2.38" transform="translate(8.155 2.754)" fill="#fff" fill-rule="evenodd"/>
</svg>
